<svg xmlns="http://www.w3.org/2000/svg" width="800" height="800" viewBox="0 0 800 800">
  <rect width="100%" height="100%" fill="#000"/>
  <g fill="#ffffff" opacity="0.06">
  <circle cx="6" cy="6" r="2"/><circle cx="66" cy="6" r="2"/><circle cx="126" cy="6" r="2"/><circle cx="186" cy="6" r="2"/><circle cx="246" cy="6" r="2"/><circle cx="306" cy="6" r="2"/><circle cx="366" cy="6" r="2"/><circle cx="426" cy="6" r="2"/><circle cx="486" cy="6" r="2"/><circle cx="546" cy="6" r="2"/><circle cx="606" cy="6" r="2"/><circle cx="666" cy="6" r="2"/><circle cx="726" cy="6" r="2"/><circle cx="786" cy="6" r="2"/><circle cx="46" cy="26" r="2"/><circle cx="106" cy="26" r="2"/><circle cx="166" cy="26" r="2"/><circle cx="226" cy="26" r="2"/><circle cx="286" cy="26" r="2"/><circle cx="346" cy="26" r="2"/><circle cx="406" cy="26" r="2"/><circle cx="466" cy="26" r="2"/><circle cx="526" cy="26" r="2"/><circle cx="586" cy="26" r="2"/><circle cx="646" cy="26" r="2"/><circle cx="706" cy="26" r="2"/><circle cx="766" cy="26" r="2"/><circle cx="26" cy="46" r="2"/><circle cx="86" cy="46" r="2"/><circle cx="146" cy="46" r="2"/><circle cx="206" cy="46" r="2"/><circle cx="266" cy="46" r="2"/><circle cx="326" cy="46" r="2"/><circle cx="386" cy="46" r="2"/><circle cx="446" cy="46" r="2"/><circle cx="506" cy="46" r="2"/><circle cx="566" cy="46" r="2"/><circle cx="626" cy="46" r="2"/><circle cx="686" cy="46" r="2"/><circle cx="746" cy="46" r="2"/><circle cx="6" cy="66" r="2"/><circle cx="66" cy="66" r="2"/><circle cx="126" cy="66" r="2"/><circle cx="186" cy="66" r="2"/><circle cx="246" cy="66" r="2"/><circle cx="306" cy="66" r="2"/><circle cx="366" cy="66" r="2"/><circle cx="426" cy="66" r="2"/><circle cx="486" cy="66" r="2"/><circle cx="546" cy="66" r="2"/><circle cx="606" cy="66" r="2"/><circle cx="666" cy="66" r="2"/><circle cx="726" cy="66" r="2"/><circle cx="786" cy="66" r="2"/><circle cx="46" cy="86" r="2"/><circle cx="106" cy="86" r="2"/><circle cx="166" cy="86" r="2"/><circle cx="226" cy="86" r="2"/><circle cx="286" cy="86" r="2"/><circle cx="346" cy="86" r="2"/><circle cx="406" cy="86" r="2"/><circle cx="466" cy="86" r="2"/><circle cx="526" cy="86" r="2"/><circle cx="586" cy="86" r="2"/><circle cx="646" cy="86" r="2"/><circle cx="706" cy="86" r="2"/><circle cx="766" cy="86" r="2"/><circle cx="26" cy="106" r="2"/><circle cx="86" cy="106" r="2"/><circle cx="146" cy="106" r="2"/><circle cx="206" cy="106" r="2"/><circle cx="266" cy="106" r="2"/><circle cx="326" cy="106" r="2"/><circle cx="386" cy="106" r="2"/><circle cx="446" cy="106" r="2"/><circle cx="506" cy="106" r="2"/><circle cx="566" cy="106" r="2"/><circle cx="626" cy="106" r="2"/><circle cx="686" cy="106" r="2"/><circle cx="746" cy="106" r="2"/><circle cx="6" cy="126" r="2"/><circle cx="66" cy="126" r="2"/><circle cx="126" cy="126" r="2"/><circle cx="186" cy="126" r="2"/><circle cx="246" cy="126" r="2"/><circle cx="306" cy="126" r="2"/><circle cx="366" cy="126" r="2"/><circle cx="426" cy="126" r="2"/><circle cx="486" cy="126" r="2"/><circle cx="546" cy="126" r="2"/><circle cx="606" cy="126" r="2"/><circle cx="666" cy="126" r="2"/><circle cx="726" cy="126" r="2"/><circle cx="786" cy="126" r="2"/><circle cx="46" cy="146" r="2"/><circle cx="106" cy="146" r="2"/><circle cx="166" cy="146" r="2"/><circle cx="226" cy="146" r="2"/><circle cx="286" cy="146" r="2"/><circle cx="346" cy="146" r="2"/><circle cx="406" cy="146" r="2"/><circle cx="466" cy="146" r="2"/><circle cx="526" cy="146" r="2"/><circle cx="586" cy="146" r="2"/><circle cx="646" cy="146" r="2"/><circle cx="706" cy="146" r="2"/><circle cx="766" cy="146" r="2"/><circle cx="26" cy="166" r="2"/><circle cx="86" cy="166" r="2"/><circle cx="146" cy="166" r="2"/><circle cx="206" cy="166" r="2"/><circle cx="266" cy="166" r="2"/><circle cx="326" cy="166" r="2"/><circle cx="386" cy="166" r="2"/><circle cx="446" cy="166" r="2"/><circle cx="506" cy="166" r="2"/><circle cx="566" cy="166" r="2"/><circle cx="626" cy="166" r="2"/><circle cx="686" cy="166" r="2"/><circle cx="746" cy="166" r="2"/><circle cx="6" cy="186" r="2"/><circle cx="66" cy="186" r="2"/><circle cx="126" cy="186" r="2"/><circle cx="186" cy="186" r="2"/><circle cx="246" cy="186" r="2"/><circle cx="306" cy="186" r="2"/><circle cx="366" cy="186" r="2"/><circle cx="426" cy="186" r="2"/><circle cx="486" cy="186" r="2"/><circle cx="546" cy="186" r="2"/><circle cx="606" cy="186" r="2"/><circle cx="666" cy="186" r="2"/><circle cx="726" cy="186" r="2"/><circle cx="786" cy="186" r="2"/><circle cx="46" cy="206" r="2"/><circle cx="106" cy="206" r="2"/><circle cx="166" cy="206" r="2"/><circle cx="226" cy="206" r="2"/><circle cx="286" cy="206" r="2"/><circle cx="346" cy="206" r="2"/><circle cx="406" cy="206" r="2"/><circle cx="466" cy="206" r="2"/><circle cx="526" cy="206" r="2"/><circle cx="586" cy="206" r="2"/><circle cx="646" cy="206" r="2"/><circle cx="706" cy="206" r="2"/><circle cx="766" cy="206" r="2"/><circle cx="26" cy="226" r="2"/><circle cx="86" cy="226" r="2"/><circle cx="146" cy="226" r="2"/><circle cx="206" cy="226" r="2"/><circle cx="266" cy="226" r="2"/><circle cx="326" cy="226" r="2"/><circle cx="386" cy="226" r="2"/><circle cx="446" cy="226" r="2"/><circle cx="506" cy="226" r="2"/><circle cx="566" cy="226" r="2"/><circle cx="626" cy="226" r="2"/><circle cx="686" cy="226" r="2"/><circle cx="746" cy="226" r="2"/><circle cx="6" cy="246" r="2"/><circle cx="66" cy="246" r="2"/><circle cx="126" cy="246" r="2"/><circle cx="186" cy="246" r="2"/><circle cx="246" cy="246" r="2"/><circle cx="306" cy="246" r="2"/><circle cx="366" cy="246" r="2"/><circle cx="426" cy="246" r="2"/><circle cx="486" cy="246" r="2"/><circle cx="546" cy="246" r="2"/><circle cx="606" cy="246" r="2"/><circle cx="666" cy="246" r="2"/><circle cx="726" cy="246" r="2"/><circle cx="786" cy="246" r="2"/><circle cx="46" cy="266" r="2"/><circle cx="106" cy="266" r="2"/><circle cx="166" cy="266" r="2"/><circle cx="226" cy="266" r="2"/><circle cx="286" cy="266" r="2"/><circle cx="346" cy="266" r="2"/><circle cx="406" cy="266" r="2"/><circle cx="466" cy="266" r="2"/><circle cx="526" cy="266" r="2"/><circle cx="586" cy="266" r="2"/><circle cx="646" cy="266" r="2"/><circle cx="706" cy="266" r="2"/><circle cx="766" cy="266" r="2"/><circle cx="26" cy="286" r="2"/><circle cx="86" cy="286" r="2"/><circle cx="146" cy="286" r="2"/><circle cx="206" cy="286" r="2"/><circle cx="266" cy="286" r="2"/><circle cx="326" cy="286" r="2"/><circle cx="386" cy="286" r="2"/><circle cx="446" cy="286" r="2"/><circle cx="506" cy="286" r="2"/><circle cx="566" cy="286" r="2"/><circle cx="626" cy="286" r="2"/><circle cx="686" cy="286" r="2"/><circle cx="746" cy="286" r="2"/><circle cx="6" cy="306" r="2"/><circle cx="66" cy="306" r="2"/><circle cx="126" cy="306" r="2"/><circle cx="186" cy="306" r="2"/><circle cx="246" cy="306" r="2"/><circle cx="306" cy="306" r="2"/><circle cx="366" cy="306" r="2"/><circle cx="426" cy="306" r="2"/><circle cx="486" cy="306" r="2"/><circle cx="546" cy="306" r="2"/><circle cx="606" cy="306" r="2"/><circle cx="666" cy="306" r="2"/><circle cx="726" cy="306" r="2"/><circle cx="786" cy="306" r="2"/><circle cx="46" cy="326" r="2"/><circle cx="106" cy="326" r="2"/><circle cx="166" cy="326" r="2"/><circle cx="226" cy="326" r="2"/><circle cx="286" cy="326" r="2"/><circle cx="346" cy="326" r="2"/><circle cx="406" cy="326" r="2"/><circle cx="466" cy="326" r="2"/><circle cx="526" cy="326" r="2"/><circle cx="586" cy="326" r="2"/><circle cx="646" cy="326" r="2"/><circle cx="706" cy="326" r="2"/><circle cx="766" cy="326" r="2"/><circle cx="26" cy="346" r="2"/><circle cx="86" cy="346" r="2"/><circle cx="146" cy="346" r="2"/><circle cx="206" cy="346" r="2"/><circle cx="266" cy="346" r="2"/><circle cx="326" cy="346" r="2"/><circle cx="386" cy="346" r="2"/><circle cx="446" cy="346" r="2"/><circle cx="506" cy="346" r="2"/><circle cx="566" cy="346" r="2"/><circle cx="626" cy="346" r="2"/><circle cx="686" cy="346" r="2"/><circle cx="746" cy="346" r="2"/><circle cx="6" cy="366" r="2"/><circle cx="66" cy="366" r="2"/><circle cx="126" cy="366" r="2"/><circle cx="186" cy="366" r="2"/><circle cx="246" cy="366" r="2"/><circle cx="306" cy="366" r="2"/><circle cx="366" cy="366" r="2"/><circle cx="426" cy="366" r="2"/><circle cx="486" cy="366" r="2"/><circle cx="546" cy="366" r="2"/><circle cx="606" cy="366" r="2"/><circle cx="666" cy="366" r="2"/><circle cx="726" cy="366" r="2"/><circle cx="786" cy="366" r="2"/><circle cx="46" cy="386" r="2"/><circle cx="106" cy="386" r="2"/><circle cx="166" cy="386" r="2"/><circle cx="226" cy="386" r="2"/><circle cx="286" cy="386" r="2"/><circle cx="346" cy="386" r="2"/><circle cx="406" cy="386" r="2"/><circle cx="466" cy="386" r="2"/><circle cx="526" cy="386" r="2"/><circle cx="586" cy="386" r="2"/><circle cx="646" cy="386" r="2"/><circle cx="706" cy="386" r="2"/><circle cx="766" cy="386" r="2"/><circle cx="26" cy="406" r="2"/><circle cx="86" cy="406" r="2"/><circle cx="146" cy="406" r="2"/><circle cx="206" cy="406" r="2"/><circle cx="266" cy="406" r="2"/><circle cx="326" cy="406" r="2"/><circle cx="386" cy="406" r="2"/><circle cx="446" cy="406" r="2"/><circle cx="506" cy="406" r="2"/><circle cx="566" cy="406" r="2"/><circle cx="626" cy="406" r="2"/><circle cx="686" cy="406" r="2"/><circle cx="746" cy="406" r="2"/><circle cx="6" cy="426" r="2"/><circle cx="66" cy="426" r="2"/><circle cx="126" cy="426" r="2"/><circle cx="186" cy="426" r="2"/><circle cx="246" cy="426" r="2"/><circle cx="306" cy="426" r="2"/><circle cx="366" cy="426" r="2"/><circle cx="426" cy="426" r="2"/><circle cx="486" cy="426" r="2"/><circle cx="546" cy="426" r="2"/><circle cx="606" cy="426" r="2"/><circle cx="666" cy="426" r="2"/><circle cx="726" cy="426" r="2"/><circle cx="786" cy="426" r="2"/><circle cx="46" cy="446" r="2"/><circle cx="106" cy="446" r="2"/><circle cx="166" cy="446" r="2"/><circle cx="226" cy="446" r="2"/><circle cx="286" cy="446" r="2"/><circle cx="346" cy="446" r="2"/><circle cx="406" cy="446" r="2"/><circle cx="466" cy="446" r="2"/><circle cx="526" cy="446" r="2"/><circle cx="586" cy="446" r="2"/><circle cx="646" cy="446" r="2"/><circle cx="706" cy="446" r="2"/><circle cx="766" cy="446" r="2"/><circle cx="26" cy="466" r="2"/><circle cx="86" cy="466" r="2"/><circle cx="146" cy="466" r="2"/><circle cx="206" cy="466" r="2"/><circle cx="266" cy="466" r="2"/><circle cx="326" cy="466" r="2"/><circle cx="386" cy="466" r="2"/><circle cx="446" cy="466" r="2"/><circle cx="506" cy="466" r="2"/><circle cx="566" cy="466" r="2"/><circle cx="626" cy="466" r="2"/><circle cx="686" cy="466" r="2"/><circle cx="746" cy="466" r="2"/><circle cx="6" cy="486" r="2"/><circle cx="66" cy="486" r="2"/><circle cx="126" cy="486" r="2"/><circle cx="186" cy="486" r="2"/><circle cx="246" cy="486" r="2"/><circle cx="306" cy="486" r="2"/><circle cx="366" cy="486" r="2"/><circle cx="426" cy="486" r="2"/><circle cx="486" cy="486" r="2"/><circle cx="546" cy="486" r="2"/><circle cx="606" cy="486" r="2"/><circle cx="666" cy="486" r="2"/><circle cx="726" cy="486" r="2"/><circle cx="786" cy="486" r="2"/><circle cx="46" cy="506" r="2"/><circle cx="106" cy="506" r="2"/><circle cx="166" cy="506" r="2"/><circle cx="226" cy="506" r="2"/><circle cx="286" cy="506" r="2"/><circle cx="346" cy="506" r="2"/><circle cx="406" cy="506" r="2"/><circle cx="466" cy="506" r="2"/><circle cx="526" cy="506" r="2"/><circle cx="586" cy="506" r="2"/><circle cx="646" cy="506" r="2"/><circle cx="706" cy="506" r="2"/><circle cx="766" cy="506" r="2"/><circle cx="26" cy="526" r="2"/><circle cx="86" cy="526" r="2"/><circle cx="146" cy="526" r="2"/><circle cx="206" cy="526" r="2"/><circle cx="266" cy="526" r="2"/><circle cx="326" cy="526" r="2"/><circle cx="386" cy="526" r="2"/><circle cx="446" cy="526" r="2"/><circle cx="506" cy="526" r="2"/><circle cx="566" cy="526" r="2"/><circle cx="626" cy="526" r="2"/><circle cx="686" cy="526" r="2"/><circle cx="746" cy="526" r="2"/><circle cx="6" cy="546" r="2"/><circle cx="66" cy="546" r="2"/><circle cx="126" cy="546" r="2"/><circle cx="186" cy="546" r="2"/><circle cx="246" cy="546" r="2"/><circle cx="306" cy="546" r="2"/><circle cx="366" cy="546" r="2"/><circle cx="426" cy="546" r="2"/><circle cx="486" cy="546" r="2"/><circle cx="546" cy="546" r="2"/><circle cx="606" cy="546" r="2"/><circle cx="666" cy="546" r="2"/><circle cx="726" cy="546" r="2"/><circle cx="786" cy="546" r="2"/><circle cx="46" cy="566" r="2"/><circle cx="106" cy="566" r="2"/><circle cx="166" cy="566" r="2"/><circle cx="226" cy="566" r="2"/><circle cx="286" cy="566" r="2"/><circle cx="346" cy="566" r="2"/><circle cx="406" cy="566" r="2"/><circle cx="466" cy="566" r="2"/><circle cx="526" cy="566" r="2"/><circle cx="586" cy="566" r="2"/><circle cx="646" cy="566" r="2"/><circle cx="706" cy="566" r="2"/><circle cx="766" cy="566" r="2"/><circle cx="26" cy="586" r="2"/><circle cx="86" cy="586" r="2"/><circle cx="146" cy="586" r="2"/><circle cx="206" cy="586" r="2"/><circle cx="266" cy="586" r="2"/><circle cx="326" cy="586" r="2"/><circle cx="386" cy="586" r="2"/><circle cx="446" cy="586" r="2"/><circle cx="506" cy="586" r="2"/><circle cx="566" cy="586" r="2"/><circle cx="626" cy="586" r="2"/><circle cx="686" cy="586" r="2"/><circle cx="746" cy="586" r="2"/><circle cx="6" cy="606" r="2"/><circle cx="66" cy="606" r="2"/><circle cx="126" cy="606" r="2"/><circle cx="186" cy="606" r="2"/><circle cx="246" cy="606" r="2"/><circle cx="306" cy="606" r="2"/><circle cx="366" cy="606" r="2"/><circle cx="426" cy="606" r="2"/><circle cx="486" cy="606" r="2"/><circle cx="546" cy="606" r="2"/><circle cx="606" cy="606" r="2"/><circle cx="666" cy="606" r="2"/><circle cx="726" cy="606" r="2"/><circle cx="786" cy="606" r="2"/><circle cx="46" cy="626" r="2"/><circle cx="106" cy="626" r="2"/><circle cx="166" cy="626" r="2"/><circle cx="226" cy="626" r="2"/><circle cx="286" cy="626" r="2"/><circle cx="346" cy="626" r="2"/><circle cx="406" cy="626" r="2"/><circle cx="466" cy="626" r="2"/><circle cx="526" cy="626" r="2"/><circle cx="586" cy="626" r="2"/><circle cx="646" cy="626" r="2"/><circle cx="706" cy="626" r="2"/><circle cx="766" cy="626" r="2"/><circle cx="26" cy="646" r="2"/><circle cx="86" cy="646" r="2"/><circle cx="146" cy="646" r="2"/><circle cx="206" cy="646" r="2"/><circle cx="266" cy="646" r="2"/><circle cx="326" cy="646" r="2"/><circle cx="386" cy="646" r="2"/><circle cx="446" cy="646" r="2"/><circle cx="506" cy="646" r="2"/><circle cx="566" cy="646" r="2"/><circle cx="626" cy="646" r="2"/><circle cx="686" cy="646" r="2"/><circle cx="746" cy="646" r="2"/><circle cx="6" cy="666" r="2"/><circle cx="66" cy="666" r="2"/><circle cx="126" cy="666" r="2"/><circle cx="186" cy="666" r="2"/><circle cx="246" cy="666" r="2"/><circle cx="306" cy="666" r="2"/><circle cx="366" cy="666" r="2"/><circle cx="426" cy="666" r="2"/><circle cx="486" cy="666" r="2"/><circle cx="546" cy="666" r="2"/><circle cx="606" cy="666" r="2"/><circle cx="666" cy="666" r="2"/><circle cx="726" cy="666" r="2"/><circle cx="786" cy="666" r="2"/><circle cx="46" cy="686" r="2"/><circle cx="106" cy="686" r="2"/><circle cx="166" cy="686" r="2"/><circle cx="226" cy="686" r="2"/><circle cx="286" cy="686" r="2"/><circle cx="346" cy="686" r="2"/><circle cx="406" cy="686" r="2"/><circle cx="466" cy="686" r="2"/><circle cx="526" cy="686" r="2"/><circle cx="586" cy="686" r="2"/><circle cx="646" cy="686" r="2"/><circle cx="706" cy="686" r="2"/><circle cx="766" cy="686" r="2"/><circle cx="26" cy="706" r="2"/><circle cx="86" cy="706" r="2"/><circle cx="146" cy="706" r="2"/><circle cx="206" cy="706" r="2"/><circle cx="266" cy="706" r="2"/><circle cx="326" cy="706" r="2"/><circle cx="386" cy="706" r="2"/><circle cx="446" cy="706" r="2"/><circle cx="506" cy="706" r="2"/><circle cx="566" cy="706" r="2"/><circle cx="626" cy="706" r="2"/><circle cx="686" cy="706" r="2"/><circle cx="746" cy="706" r="2"/><circle cx="6" cy="726" r="2"/><circle cx="66" cy="726" r="2"/><circle cx="126" cy="726" r="2"/><circle cx="186" cy="726" r="2"/><circle cx="246" cy="726" r="2"/><circle cx="306" cy="726" r="2"/><circle cx="366" cy="726" r="2"/><circle cx="426" cy="726" r="2"/><circle cx="486" cy="726" r="2"/><circle cx="546" cy="726" r="2"/><circle cx="606" cy="726" r="2"/><circle cx="666" cy="726" r="2"/><circle cx="726" cy="726" r="2"/><circle cx="786" cy="726" r="2"/><circle cx="46" cy="746" r="2"/><circle cx="106" cy="746" r="2"/><circle cx="166" cy="746" r="2"/><circle cx="226" cy="746" r="2"/><circle cx="286" cy="746" r="2"/><circle cx="346" cy="746" r="2"/><circle cx="406" cy="746" r="2"/><circle cx="466" cy="746" r="2"/><circle cx="526" cy="746" r="2"/><circle cx="586" cy="746" r="2"/><circle cx="646" cy="746" r="2"/><circle cx="706" cy="746" r="2"/><circle cx="766" cy="746" r="2"/><circle cx="26" cy="766" r="2"/><circle cx="86" cy="766" r="2"/><circle cx="146" cy="766" r="2"/><circle cx="206" cy="766" r="2"/><circle cx="266" cy="766" r="2"/><circle cx="326" cy="766" r="2"/><circle cx="386" cy="766" r="2"/><circle cx="446" cy="766" r="2"/><circle cx="506" cy="766" r="2"/><circle cx="566" cy="766" r="2"/><circle cx="626" cy="766" r="2"/><circle cx="686" cy="766" r="2"/><circle cx="746" cy="766" r="2"/><circle cx="6" cy="786" r="2"/><circle cx="66" cy="786" r="2"/><circle cx="126" cy="786" r="2"/><circle cx="186" cy="786" r="2"/><circle cx="246" cy="786" r="2"/><circle cx="306" cy="786" r="2"/><circle cx="366" cy="786" r="2"/><circle cx="426" cy="786" r="2"/><circle cx="486" cy="786" r="2"/><circle cx="546" cy="786" r="2"/><circle cx="606" cy="786" r="2"/><circle cx="666" cy="786" r="2"/><circle cx="726" cy="786" r="2"/><circle cx="786" cy="786" r="2"/></g></svg>